<?xml version="1.0" encoding="UTF-8" standalone="no"?><!DOCTYPE svg PUBLIC "-//W3C//DTD SVG 1.1//EN" "http://www.w3.org/Graphics/SVG/1.1/DTD/svg11.dtd"><svg width="100%" height="100%" viewBox="0 0 30 27" version="1.1" xmlns="http://www.w3.org/2000/svg" xmlns:xlink="http://www.w3.org/1999/xlink" xml:space="preserve" xmlns:serif="http://www.serif.com/" style="fill-rule:evenodd;clip-rule:evenodd;stroke-linejoin:round;stroke-miterlimit:1.41421;"><path d="M6,20c5.98,-1.328 11.98,-1.333 18,0l0,-5l-6,2l-1,-7l-3.962,0.037l-1.038,6.963l-6,-2l0,5Z" style="fill:url(#_Linear1);"/><g><path d="M2,2c0,0 8.976,3.74 11.402,4.751c0.362,0.151 0.598,0.505 0.598,0.897c0,1.801 0,6.853 0,8.681c0,0.404 -0.25,0.765 -0.628,0.906c-1.886,0.708 -7.372,2.765 -7.372,2.765l0,-6l5.5,2l-9.5,-4l0,-10Z" style="fill:#f26851;"/><path d="M28,2c0,0 -8.934,3.722 -11.385,4.744c-0.372,0.155 -0.615,0.519 -0.615,0.923c0,1.809 0,6.8 0,8.64c0,0.417 0.259,0.79 0.649,0.936c1.905,0.715 7.351,2.757 7.351,2.757l0,-6l-5.6,2l9.6,-4l0,-10Z" style="fill:#f26851;"/></g><g><path d="M11.508,24.967l-0.434,0l0,-2.079l0.434,0l0,2.079Zm-0.493,-2.688c0,0 0,0 0,-0.001c0,-0.152 0.126,-0.278 0.279,-0.278c0.152,0 0.278,0.126 0.278,0.278c0,0.153 -0.126,0.278 -0.278,0.278c-0.074,0 -0.145,-0.029 -0.197,-0.081c-0.053,-0.051 -0.083,-0.122 -0.082,-0.196Z" style="fill:#3b3e40;fill-rule:nonzero;"/><path d="M12.297,24.701c-0.196,-0.195 -0.293,-0.456 -0.293,-0.782c0,-0.32 0.097,-0.582 0.298,-0.771c0.191,-0.187 0.449,-0.29 0.717,-0.287c0.277,0 0.499,0.119 0.668,0.353l0,-1.146l0.433,0l0,2.894l-0.434,0l0,-0.315c-0.163,0.228 -0.397,0.342 -0.706,0.342c-0.255,0.006 -0.489,-0.092 -0.684,-0.288l0.001,0Zm0.337,-0.277c0.118,0.121 0.28,0.188 0.449,0.185c0.166,0.002 0.324,-0.067 0.435,-0.19c0.119,-0.125 0.179,-0.288 0.179,-0.483c0,-0.196 -0.06,-0.364 -0.179,-0.495c-0.11,-0.128 -0.271,-0.202 -0.44,-0.201c-0.172,-0.002 -0.337,0.071 -0.451,0.201c-0.127,0.134 -0.195,0.314 -0.19,0.499c0.005,0.196 0.07,0.359 0.195,0.483l0.002,0.001Z" style="fill:#3b3e40;fill-rule:nonzero;"/><path d="M16.695,24.12l-1.631,0c0.009,0.147 0.085,0.281 0.206,0.364c0.126,0.092 0.279,0.14 0.434,0.137c0.261,0 0.457,-0.082 0.592,-0.245l0.25,0.272c-0.222,0.233 -0.516,0.347 -0.874,0.347c-0.277,0.006 -0.545,-0.1 -0.743,-0.293c-0.207,-0.195 -0.305,-0.456 -0.305,-0.782c0,-0.326 0.104,-0.587 0.31,-0.776c0.198,-0.187 0.461,-0.29 0.733,-0.288c0.264,-0.006 0.521,0.085 0.722,0.255c0.196,0.168 0.299,0.408 0.299,0.706l0,0.304l0.007,-0.001Zm-1.631,-0.347l1.189,0c0,-0.175 -0.054,-0.31 -0.163,-0.402c-0.112,-0.095 -0.255,-0.145 -0.402,-0.141c-0.155,-0.002 -0.307,0.049 -0.429,0.145c-0.126,0.093 -0.199,0.241 -0.195,0.398Z" style="fill:#3b3e40;fill-rule:nonzero;"/><path d="M18.855,24.967l-0.396,0l0,-0.277c-0.175,0.207 -0.402,0.31 -0.69,0.31c-0.217,0 -0.396,-0.06 -0.537,-0.185c-0.142,-0.125 -0.212,-0.287 -0.212,-0.488c0,-0.207 0.076,-0.359 0.228,-0.456c0.152,-0.104 0.353,-0.152 0.614,-0.152l0.564,0l0,-0.076c0,-0.277 -0.152,-0.413 -0.461,-0.413c-0.19,0 -0.391,0.07 -0.603,0.212l-0.196,-0.272c0.243,-0.197 0.546,-0.303 0.858,-0.298c0.245,0 0.446,0.059 0.598,0.184c0.152,0.125 0.233,0.321 0.233,0.583l0,1.328l0,0Zm-0.439,-0.776l0,-0.175l-0.496,0c-0.314,0 -0.472,0.098 -0.472,0.299c-0.005,0.093 0.041,0.182 0.12,0.233c0.076,0.054 0.184,0.081 0.325,0.081c0.132,0.004 0.261,-0.038 0.364,-0.119c0.104,-0.073 0.163,-0.193 0.159,-0.319Z" style="fill:#3b3e40;fill-rule:nonzero;"/><path d="M19.98,23.241l0,1.053c-0.004,0.084 0.023,0.167 0.076,0.233c0.055,0.06 0.135,0.092 0.217,0.087c0.092,0 0.185,-0.043 0.271,-0.135l0.179,0.309c-0.138,0.131 -0.32,0.204 -0.51,0.207c-0.179,0.002 -0.352,-0.069 -0.478,-0.196c-0.13,-0.13 -0.195,-0.304 -0.195,-0.521l0,-1.037l-0.261,0l0,-0.353l0.261,0l0,-0.652l0.434,0l0,0.652l0.548,0l0,0.353l-0.542,0Z" style="fill:#f26851;fill-rule:nonzero;"/><path d="M22.01,24.609c0.177,0.004 0.348,-0.064 0.473,-0.19c0.125,-0.125 0.185,-0.288 0.185,-0.489c0,-0.201 -0.06,-0.364 -0.185,-0.488c-0.263,-0.252 -0.683,-0.252 -0.945,0c-0.125,0.124 -0.183,0.287 -0.183,0.488c0,0.201 0.059,0.364 0.184,0.489c0.124,0.125 0.295,0.194 0.471,0.19Zm0,0.386c-0.314,0 -0.57,-0.103 -0.782,-0.31c-0.204,-0.199 -0.318,-0.474 -0.314,-0.76c-0.007,-0.286 0.107,-0.563 0.314,-0.76c0.207,-0.207 0.468,-0.31 0.782,-0.31c0.31,0 0.571,0.103 0.782,0.31c0.204,0.199 0.316,0.475 0.31,0.76c0.006,0.285 -0.106,0.56 -0.31,0.76c-0.211,0.206 -0.466,0.309 -0.782,0.309l0,0.001Z" style="fill:#f26851;fill-rule:nonzero;"/><path d="M7.94,23.691l0.071,0.022l-0.044,0.06l-0.68,0.848l0.516,0.375l0.592,-0.903l0.043,-0.06l0.044,0.06l0.592,0.903l0.517,-0.375l-0.668,-0.842l-0.043,-0.061l0.07,-0.022l1.043,-0.288l-0.195,-0.608l-1.01,0.381l-0.076,0.022l0,-0.076l0.054,-1.076l-0.641,0l0.049,1.081l0,0.076l-0.071,-0.022l-1.01,-0.38l-0.195,0.608l1.042,0.277l0,0Z" style="fill:#f26851;fill-rule:nonzero;"/></g><defs><linearGradient id="_Linear1" x1="0" y1="0" x2="1" y2="0" gradientUnits="userSpaceOnUse" gradientTransform="matrix(18,0,0,10.0101,6,14.995)"><stop offset="0" style="stop-color:#000;stop-opacity:0.15"/><stop offset="0.5" style="stop-color:#000;stop-opacity:0"/><stop offset="1" style="stop-color:#000;stop-opacity:0.15"/></linearGradient></defs></svg>