<?xml version="1.0" encoding="UTF-8" standalone="no"?>
<svg width="100%" height="100%" viewBox="0 0 624 256" version="1.1" xmlns="http://www.w3.org/2000/svg" xmlns:xlink="http://www.w3.org/1999/xlink" xml:space="preserve" xmlns:serif="http://www.serif.com/" style="fill-rule:evenodd;clip-rule:evenodd;stroke-linejoin:round;stroke-miterlimit:1.41421;"><g id="Logo"><path d="M191.92,177.9l-14.92,0l0,-71.41l14.92,0l0,71.41Zm-16.92,-92.29c0,-0.015 0,-0.031 0,-0.046c0,-5.239 4.311,-9.55 9.55,-9.55c5.239,0 9.55,4.311 9.55,9.55c0,5.239 -4.311,9.55 -9.55,9.55c-2.53,0 -4.96,-1.006 -6.75,-2.794c-1.819,-1.753 -2.834,-4.184 -2.8,-6.71Z" style="fill:#3b3e40;fill-rule:nonzero;"/><path d="M219,168.77c-6.713,-6.713 -10.07,-15.663 -10.07,-26.85c0,-11 3.36,-20 10.25,-26.48c6.568,-6.421 15.425,-9.977 24.61,-9.88c9.51,0 17.15,4.1 22.93,12.12l0,-39.34l14.88,0l0,99.38l-14.91,0l0,-10.82c-5.59,7.83 -13.61,11.75 -24.24,11.75c-8.76,0.19 -16.78,-3.17 -23.49,-9.88l0.04,0Zm11.56,-9.51c4.055,4.143 9.643,6.437 15.44,6.34c5.678,0.068 11.118,-2.313 14.92,-6.53c4.1,-4.29 6.15,-9.88 6.15,-16.59c0,-6.71 -2.05,-12.49 -6.15,-17c-3.783,-4.391 -9.304,-6.914 -15.1,-6.9c-5.916,-0.068 -11.576,2.454 -15.48,6.9c-4.361,4.624 -6.711,10.796 -6.53,17.15c0.19,6.71 2.42,12.31 6.71,16.59l0.04,0.04Z" style="fill:#3b3e40;fill-rule:nonzero;"/><path d="M370,148.82l-56,0c0.316,5.029 2.934,9.641 7.09,12.49c4.323,3.15 9.562,4.798 14.91,4.69c8.95,0 15.66,-2.8 20.32,-8.39l8.58,9.32c-7.64,8 -17.71,11.93 -30,11.93c-9.513,0.191 -18.717,-3.438 -25.54,-10.07c-7.09,-6.71 -10.44,-15.66 -10.44,-26.85c0,-11.19 3.54,-20.14 10.63,-26.66c6.803,-6.408 15.824,-9.949 25.17,-9.88c9.053,-0.186 17.872,2.929 24.8,8.76c6.71,5.78 10.25,14 10.25,24.24l0,10.44l0.23,-0.02Zm-56,-11.94l40.83,0c0,-6 -1.86,-10.63 -5.59,-13.8c-3.858,-3.237 -8.765,-4.962 -13.8,-4.85c-5.334,-0.054 -10.531,1.71 -14.73,5c-4.319,3.186 -6.825,8.284 -6.71,13.65Z" style="fill:#3b3e40;fill-rule:nonzero;"/><path d="M444.19,177.9l-13.61,0l0,-9.51c-6,7.09 -13.8,10.63 -23.68,10.63c-7.46,0 -13.61,-2.05 -18.46,-6.34c-4.85,-4.29 -7.27,-9.88 -7.27,-16.78c0,-7.087 2.61,-12.307 7.83,-15.66c5.22,-3.54 12.12,-5.22 21.07,-5.22l19.39,0l0,-2.61c0,-9.51 -5.22,-14.17 -15.85,-14.17c-6.527,0 -13.427,2.423 -20.7,7.27l-6.71,-9.32c8.313,-6.762 18.745,-10.391 29.46,-10.25c8.39,0 15.29,2.05 20.51,6.34c5.22,4.29 8,11 8,20l0,45.62l0.02,0Zm-15.1,-26.66l0,-6l-17,0c-10.81,0 -16.22,3.36 -16.22,10.25c-0.175,3.207 1.395,6.269 4.1,8c2.613,1.867 6.343,2.8 11.19,2.8c4.513,0.131 8.933,-1.32 12.49,-4.1c3.549,-2.489 5.6,-6.618 5.44,-10.95Z" style="fill:#3b3e40;fill-rule:nonzero;"/><path d="M482.79,118.61l0,36.17c-0.139,2.895 0.79,5.744 2.61,8c1.914,2.061 4.652,3.162 7.46,3c3.17,0 6.34,-1.49 9.32,-4.66l6.15,10.63c-4.745,4.478 -11.006,7.011 -17.53,7.09c-6.148,0.066 -12.07,-2.355 -16.41,-6.71c-4.473,-4.473 -6.71,-10.44 -6.71,-17.9l0,-35.62l-8.95,0l0,-12.12l8.95,0l0,-22.37l14.92,0l0,22.37l18.83,0l0,12.12l-18.64,0Z" style="fill:#f26851;fill-rule:nonzero;"/><path d="M552.52,165.6c6.072,0.149 11.945,-2.215 16.22,-6.53c4.29,-4.29 6.34,-9.88 6.34,-16.78c0,-6.9 -2.05,-12.49 -6.34,-16.78c-9.009,-8.649 -23.431,-8.649 -32.44,0c-4.3,4.29 -6.3,9.88 -6.3,16.78c0,6.9 2.05,12.49 6.34,16.78c4.266,4.305 10.121,6.668 16.18,6.53Zm0,13.24c-10.81,0 -19.58,-3.54 -26.85,-10.63c-7.031,-6.844 -10.943,-16.289 -10.81,-26.1c-0.226,-9.831 3.701,-19.316 10.81,-26.11c7.087,-7.087 16.037,-10.63 26.85,-10.63c10.627,0 19.577,3.543 26.85,10.63c6.981,6.864 10.829,16.312 10.63,26.1c0.199,9.788 -3.649,19.236 -10.63,26.1c-7.27,7.09 -16.03,10.63 -26.85,10.63l0,0.01Z" style="fill:#f26851;fill-rule:nonzero;"/><path d="M69.42,134.09l2.42,0.75l-1.49,2.05l-23.35,29.11l17.71,12.87l20.32,-31l1.49,-2.05l1.49,2.05l20.32,31l17.77,-12.87l-22.93,-28.9l-1.49,-2.1l2.42,-0.75l35.8,-9.88l-6.71,-20.88l-34.68,13.07l-2.61,0.75l0,-2.61l1.86,-36.92l-22,0l1.68,37.1l0,2.61l-2.44,-0.74l-34.67,-13.06l-6.71,20.88l35.8,9.51l0,0.01Z" style="fill:#f26851;fill-rule:nonzero;"/></g></svg>
