<?xml version="1.0" encoding="UTF-8" standalone="no"?><!DOCTYPE svg PUBLIC "-//W3C//DTD SVG 1.1//EN" "http://www.w3.org/Graphics/SVG/1.1/DTD/svg11.dtd"><svg width="100%" height="100%" viewBox="0 0 57 57" version="1.1" xmlns="http://www.w3.org/2000/svg" xmlns:xlink="http://www.w3.org/1999/xlink" xml:space="preserve" xmlns:serif="http://www.serif.com/" style="fill-rule:evenodd;clip-rule:evenodd;stroke-linejoin:round;stroke-miterlimit:1.41421;"><g id="Livello2"><g id="svg-mask"><path d="M4,11.538c0,0 18.437,7.682 22.017,9.174c0.362,0.151 0.598,0.505 0.598,0.898c0,2.89 0,14.591 0,17.527c0,0.403 -0.25,0.765 -0.628,0.906c-2.852,1.07 -14.449,5.419 -14.449,5.419l0,-11.308l10.366,3.769l-17.904,-7.538l0,-18.847Zm49,0c0,0 -18.378,7.658 -22,9.167c-0.373,0.155 -0.615,0.52 -0.615,0.923c0,2.914 0,14.521 0,17.487c0,0.417 0.258,0.79 0.648,0.936c2.888,1.083 14.429,5.411 14.429,5.411l0,-11.308l-10.554,3.769l18.092,-7.538l0,-18.847Z"/></g></g></svg>